<?xml version="1.0" encoding="UTF-8"?>
<svg id="Layer_1" data-name="Layer 1" xmlns="http://www.w3.org/2000/svg" viewBox="0 0 477 199">
  <defs>
    <style>
      .cls-1, .cls-2 {
        fill: #244ea0;
      }

      .cls-1, .cls-3 {
        fill-rule: evenodd;
      }

      .cls-4, .cls-3 {
        fill: #6ab441;
      }
    </style>
  </defs>
  <polygon class="cls-1" points="379.23 126.32 392.03 126.32 392.03 100.69 410.76 126.32 426 126.32 406.52 99.99 424.09 75.49 409.12 75.49 392.03 99.21 392.03 51.84 379.23 51.84 379.23 126.32"/>
  <path class="cls-1" d="M90.33,89.03c.06-.56-.35-2.2-.41-2.43-.49-1.77-1.31-3.41-2.52-4.87-1.69-2.05-3.89-3.44-6.36-4.39-3.1-1.17-6.51-1.57-9.8-1.58-3.5,0-7.13.41-10.42,1.65-2.66,1.01-4.94,2.57-6.59,4.91-1.75,2.49-2.34,5.53-2.36,8.53-.01,2.06.32,4.15,1.24,6.01.88,1.79,2.26,3.2,3.91,4.31,2.16,1.47,4.83,2.44,7.34,3.14l9.28,2.74c1.43.41,3.03,1,4.25,1.91,1.02.8,1.74,1.87,1.74,3.2,0,1.11-.43,2.1-1.22,2.89-.79.77-1.79,1.26-2.85,1.58-1.24.36-2.53.49-3.82.49-2.18,0-4.48-.33-6.41-1.42-.92-.54-1.67-1.21-2.26-2.01h-11.9l-.16.02c.51,2.35,1.47,4.51,3,6.42,1.8,2.24,4.18,3.77,6.84,4.8,3.33,1.3,7.05,1.71,10.59,1.72,3.57,0,7.23-.45,10.56-1.77,2.7-1.08,5.02-2.69,6.71-5.07,1.73-2.42,2.38-5.3,2.39-8.24.01-2.15-.35-4.28-1.33-6.2-.98-1.92-2.51-3.43-4.28-4.63-2.4-1.61-5.24-2.75-7.99-3.61l-9.12-2.94h-.03c-1.17-.44-2.41-1.02-3.38-1.83-.82-.72-1.44-1.64-1.44-2.77,0-1.56.72-2.81,2.08-3.59,1.43-.81,3.32-.98,4.93-.98,1.93,0,3.99.28,5.68,1.25,1.19.67,2.08,1.61,2.67,2.77h11.43"/>
  <polygon class="cls-1" points="96.28 126.63 109.08 126.63 109.08 101 127.82 126.63 143.05 126.63 123.57 100.3 141.15 75.8 126.18 75.8 109.08 99.52 109.08 52.15 96.28 52.15 96.28 126.63"/>
  <path class="cls-1" d="M272.51,126.63h12.48v-32.8c0-2.43-.4-4.81-1.34-7.05-.94-2.21-2.34-4.11-4.08-5.75-1.78-1.68-3.79-3.03-6.07-3.93-2.36-.94-4.85-1.33-7.38-1.33-2.97,0-5.93.5-8.59,1.88-2.5,1.28-4.46,3.19-5.97,5.55l-1.03,1.61-1.09-1.57c-1.64-2.35-3.71-4.29-6.28-5.59-2.65-1.35-5.55-1.88-8.51-1.88-5.04,0-9.24,1.77-12.57,5.58l-2.24,2.56v-8.14h-12.48v50.87h12.48v-28.8c.02-1.91.44-3.75,1.36-5.42.86-1.57,2.06-2.86,3.59-3.83,1.57-.96,3.3-1.42,5.16-1.44,1.83.02,3.57.48,5.12,1.45,1.5.96,2.68,2.26,3.54,3.83.91,1.68,1.31,3.51,1.32,5.42v28.79h12.48v-28.8c.02-1.91.44-3.75,1.36-5.42.87-1.58,2.07-2.87,3.6-3.83,1.56-.97,3.3-1.43,5.14-1.45,1.83.02,3.57.48,5.12,1.45,1.5.96,2.7,2.26,3.54,3.83.91,1.67,1.3,3.51,1.32,5.41v28.79Z"/>
  <path class="cls-1" d="M327.28,95.57c.64,1.65.9,3.4.9,5.16-.02,2.42-.53,4.78-1.7,6.91-1.09,1.99-2.58,3.63-4.5,4.82-1.94,1.21-4.09,1.8-6.38,1.82-2.3-.02-4.46-.61-6.42-1.82-1.92-1.2-3.41-2.85-4.48-4.83-1.15-2.13-1.66-4.49-1.68-6.92.02-2.37.55-4.64,1.68-6.73,1.08-1.98,2.57-3.58,4.47-4.79,1.95-1.23,4.12-1.82,6.43-1.84,1.67,0,3.31.31,4.84.99,1.56.68,2.91,1.69,4.08,2.92,1.2,1.25,2.14,2.69,2.77,4.31M328.37,126.26h12.07v-50.87h-12.07v5.93l-1.99-1.48c-3.96-2.95-8.39-4.44-13.33-4.44-3.1,0-6.11.55-8.94,1.8-2.83,1.25-5.26,3.12-7.33,5.41-2.17,2.4-3.81,5.11-4.9,8.15-1.14,3.24-1.62,6.65-1.62,10.07s.48,6.78,1.62,9.99c1.1,3.06,2.75,5.81,4.9,8.24,2.07,2.29,4.5,4.16,7.33,5.41,2.84,1.25,5.85,1.8,8.94,1.8,2.41,0,4.79-.35,7.08-1.12,2.27-.76,4.35-1.92,6.22-3.4l2.02-1.58v6.11Z"/>
  <path class="cls-1" d="M358.14,75.7h-12.39v50.87h12.39v-26.6c.02-2.14.49-4.2,1.54-6.08,1.02-1.78,2.4-3.2,4.17-4.24,1.83-1.09,3.87-1.57,6-1.59,1.12,0,2.24.11,3.31.41.27.07.53.15.8.24v-12.61c-2.56.1-5.13.54-7.5,1.54-2.42,1.01-4.44,2.55-6.05,4.62l-2.27,2.92v-9.46Z"/>
  <path class="cls-2" d="M413.35,133.18v12.6c0,.2.07.37.2.5.13.13.3.2.5.2h.78c.19,0,.35-.07.48-.2.13-.13.2-.3.2-.5v-9.41l7.63,9.65c.24.31.57.46.98.46h.68c.2,0,.37-.07.5-.2.13-.13.2-.29.2-.48v-12.6c0-.2-.07-.37-.2-.5-.13-.13-.3-.2-.5-.2h-.78c-.2,0-.36.07-.49.2-.13.13-.19.3-.19.5v9.43l-7.63-9.65c-.23-.32-.55-.48-.98-.48h-.7c-.19,0-.35.07-.48.2-.13.13-.2.29-.2.48M386.18,139.49c0-1.45.47-2.66,1.42-3.63.95-.97,2.12-1.46,3.51-1.46s2.59.49,3.52,1.46c.94.97,1.41,2.18,1.41,3.63s-.47,2.66-1.41,3.63c-.94.97-2.11,1.46-3.52,1.46s-2.57-.49-3.51-1.46c-.95-.97-1.42-2.18-1.42-3.63ZM383.86,139.49c0,2.06.69,3.79,2.08,5.17,1.38,1.38,3.11,2.08,5.17,2.08s3.79-.69,5.18-2.08c1.39-1.38,2.09-3.11,2.09-5.17s-.7-3.79-2.09-5.17c-1.39-1.38-3.12-2.08-5.18-2.08s-3.79.69-5.17,2.08c-1.38,1.38-2.08,3.11-2.08,5.17ZM366.64,145.78c0,.2.07.37.2.5.13.13.3.2.5.2h.86c.2,0,.36-.07.49-.2.13-.13.19-.3.19-.5v-12.58c0-.2-.06-.37-.19-.5-.13-.13-.29-.2-.49-.2h-.86c-.2,0-.37.07-.5.2-.13.13-.2.3-.2.5v12.58ZM339.93,133.2v.68c0,.2.07.37.2.5.13.13.3.2.5.2h4.23v11.2c0,.2.07.37.2.5.13.13.3.2.5.2h.86c.19,0,.35-.07.48-.2.13-.13.2-.3.2-.5v-11.2h4.25c.19,0,.35-.07.48-.2.13-.13.2-.3.2-.5v-.68c0-.2-.07-.37-.2-.5-.13-.13-.29-.2-.48-.2h-10.72c-.2,0-.37.07-.5.2-.13.13-.2.3-.2.5ZM321.15,135.7l2.5,5.83h-4.99l2.5-5.83ZM314.46,145.84c-.08.19-.08.34,0,.46.08.12.22.18.42.18h.96c.2,0,.39-.06.58-.18.19-.12.32-.27.4-.46l.96-2.24h6.75l.96,2.24c.08.19.21.34.4.46.19.12.38.18.58.18h.96c.2,0,.34-.06.42-.18.08-.12.08-.27,0-.46l-5.55-12.78c-.05-.16-.16-.29-.33-.4-.17-.11-.34-.16-.51-.16h-.6c-.41,0-.7.19-.86.56l-5.53,12.78ZM300.27,143.57c.11-.17.13-.34.08-.51-.05-.17-.17-.28-.36-.35l-.9-.32c-.08-.04-.17-.06-.28-.06-.28,0-.53.13-.74.38-.96,1.25-2.25,1.88-3.87,1.88-1.4,0-2.57-.49-3.51-1.46-.95-.97-1.42-2.18-1.42-3.63s.47-2.66,1.42-3.63c.95-.97,2.12-1.46,3.51-1.46,1.62,0,2.92.63,3.87,1.88.21.25.46.38.74.38.11,0,.2-.02.28-.06l.9-.32c.19-.07.31-.18.36-.35.05-.17.03-.34-.08-.51-.64-.99-1.49-1.76-2.56-2.33-1.06-.57-2.24-.85-3.51-.85-2.06,0-3.79.69-5.17,2.08-1.38,1.38-2.08,3.11-2.08,5.17s.69,3.79,2.08,5.17c1.38,1.38,3.11,2.08,5.17,2.08,1.28,0,2.45-.28,3.51-.85,1.07-.57,1.92-1.34,2.56-2.33ZM266.13,146.74c1.72,0,3.15-.56,4.3-1.68,1.15-1.12,1.73-2.51,1.73-4.17v-7.69c0-.2-.07-.37-.2-.5-.13-.13-.3-.2-.5-.2h-.86c-.2,0-.37.07-.5.2-.13.13-.2.3-.2.5v7.69c0,1.08-.36,1.98-1.08,2.7-.72.72-1.62,1.08-2.7,1.08s-1.98-.36-2.71-1.08c-.73-.72-1.09-1.62-1.09-2.7v-7.69c0-.2-.06-.37-.19-.5-.13-.13-.29-.2-.49-.2h-.86c-.2,0-.37.07-.5.2-.13.13-.2.3-.2.5v7.69c0,1.66.58,3.06,1.73,4.17,1.15,1.12,2.59,1.68,4.3,1.68ZM234.71,144.41v-9.83h3.36c1.4,0,2.57.47,3.51,1.42.95.95,1.42,2.11,1.42,3.5s-.47,2.55-1.42,3.5c-.95.95-2.12,1.42-3.51,1.42h-3.36ZM232.47,133.2v12.58c0,.2.07.37.2.5.13.13.3.2.5.2h4.89c2.06,0,3.79-.67,5.18-2.02,1.39-1.34,2.09-3,2.09-4.97s-.7-3.63-2.09-4.97c-1.39-1.34-3.12-2.02-5.18-2.02h-4.89c-.2,0-.37.07-.5.2-.13.13-.2.3-.2.5ZM207.36,133.2v12.58c0,.2.07.37.2.5.13.13.3.2.5.2h8.91c.19,0,.35-.07.48-.2.13-.13.2-.3.2-.5v-.68c0-.2-.07-.37-.2-.5-.13-.13-.29-.2-.48-.2h-7.37v-3.95h6.19c.2,0,.37-.07.5-.2.13-.13.2-.3.2-.5v-.68c0-.2-.07-.37-.2-.5-.13-.13-.3-.2-.5-.2h-6.19v-3.79h7.27c.19,0,.35-.07.48-.2s.2-.3.2-.5v-.68c0-.2-.07-.37-.2-.5-.13-.13-.29-.2-.48-.2h-8.81c-.2,0-.37.07-.5.2-.13.13-.2.3-.2.5Z"/>
  <path class="cls-4" d="M193.1,89.63c.7.06,1.22.67,1.16,1.37-.06.7-.67,1.22-1.37,1.16-.7-.06-1.22-.68-1.16-1.37.06-.7.67-1.22,1.37-1.16M189.48,114.9c5.28-8.98,9.88-18.3,14.51-25.23l-11.02-2.49c-4.02-.91-5.19.67-7.39,4.17l-5.66,8.47c.41,2.01.63,4.09.63,6.22,0,12.35-7.25,23.01-17.73,27.96-4.84,2.62-10.41,3.82-16.18,3.16,0,0,25.4,5.3,42.85-22.27Z"/>
  <path class="cls-3" d="M153.55,75.69c15.9,2.27,27.06,17.85,24.93,34.79-2.12,16.92-16.69,28.8-32.56,26.59,10.11-4.02,17.87-13.7,19.4-25.9,2-15.95-7.32-30.74-21.37-35.15,3.08-.66,6.31-.8,9.6-.33"/>
  <path class="cls-1" d="M153.55,75.69c14.35,2.05,24.83,14.93,25.18,29.88-3.11,10.36-10.83,18.73-20.78,22.73,3.88-4.63,6.54-10.51,7.37-17.13,2-15.95-7.32-30.74-21.37-35.15,3.08-.66,6.31-.8,9.6-.33"/>
</svg>